<svg xmlns="http://www.w3.org/2000/svg" xmlns:xlink="http://www.w3.org/1999/xlink" version="1.1" x="0px" y="0px" viewBox="0 0 100 100" enable-background="new 0 0 100 100" xml:space="preserve"><circle fill="none" stroke="#000000" stroke-width="2" stroke-linecap="round" stroke-linejoin="round" stroke-miterlimit="10" cx="45.534" cy="54.423" r="26.167"></circle><path fill="none" stroke="#000000" stroke-width="2" stroke-linecap="round" stroke-linejoin="round" stroke-miterlimit="10" d="  M44.626,80.59c0,0-1.917,0.408-1.917,3.158s2.825,3.009,2.825,3.009c17.857,0,32.333-14.476,32.333-32.333  c0,0,0.603-3.842-2.908-3.842s-3.259,2.583-3.259,2.583"></path><path fill="none" stroke="#000000" stroke-width="2" stroke-linecap="round" stroke-linejoin="round" stroke-miterlimit="10" d="  M52.834,74.498v-1.875c0,0,0.125-4.5-5.25-4.5s-9.625,0-11.875,0s-8.375-0.625-8.375-6.125s0-8.75,0-8.75h9.625c0,0,5.75,0,5.75-4.5  s0-7.625,0-7.625h13.25c0,0,6.625-0.125,6.625,7.75s0,12.25,0,12.25s-0.375,3.25-4.875,3.25s-4.125-4.5-4.125-4.5V49.748"></path><circle fill="none" stroke="#000000" stroke-width="2" stroke-linecap="round" stroke-linejoin="round" stroke-miterlimit="10" cx="48.647" cy="50.581" r="0.875"></circle><path fill="none" stroke="#000000" stroke-width="2" stroke-linecap="round" stroke-linejoin="round" stroke-miterlimit="10" d="  M35.709,68.123c0,0,5.5-0.875,6-6.938"></path><path fill="none" stroke="#000000" stroke-linecap="round" stroke-linejoin="round" stroke-miterlimit="10" d="M26.647,45.935  c0,0,3.313-12.438,17-13.312"></path><line fill="none" stroke="#000000" stroke-width="2" stroke-linecap="round" stroke-linejoin="round" stroke-miterlimit="10" x1="62.584" y1="60.081" x2="67.293" y2="60.081"></line><circle fill="none" stroke="#000000" stroke-width="2" stroke-linecap="round" stroke-linejoin="round" stroke-miterlimit="10" cx="71.701" cy="18.393" r="1.656"></circle><line fill="none" stroke="#000000" stroke-width="2" stroke-linecap="round" stroke-linejoin="round" stroke-miterlimit="10" x1="71.701" y1="53.164" x2="71.701" y2="21"></line></svg>